<svg width="1000" height="300" viewBox="0 0 1000 300" fill="none" xmlns="http://www.w3.org/2000/svg">
<rect width="1000" height="300" fill="#0F0F0F"/>
<path d="M170.761 205V190.455H175.847C176.86 190.455 177.696 190.63 178.354 190.98C179.012 191.326 179.502 191.792 179.824 192.379C180.146 192.962 180.307 193.608 180.307 194.318C180.307 194.943 180.196 195.459 179.973 195.866C179.755 196.274 179.466 196.596 179.107 196.832C178.751 197.069 178.366 197.244 177.949 197.358V197.5C178.394 197.528 178.841 197.685 179.291 197.969C179.741 198.253 180.117 198.66 180.42 199.19C180.723 199.721 180.875 200.369 180.875 201.136C180.875 201.866 180.709 202.521 180.378 203.104C180.046 203.686 179.523 204.148 178.808 204.489C178.093 204.83 177.163 205 176.017 205H170.761ZM172.523 203.438H176.017C177.168 203.438 177.984 203.215 178.467 202.77C178.955 202.32 179.199 201.776 179.199 201.136C179.199 200.644 179.073 200.189 178.822 199.773C178.571 199.351 178.214 199.015 177.75 198.764C177.286 198.509 176.737 198.381 176.102 198.381H172.523V203.438ZM172.523 196.847H175.79C176.32 196.847 176.798 196.742 177.224 196.534C177.655 196.326 177.996 196.032 178.247 195.653C178.503 195.275 178.631 194.83 178.631 194.318C178.631 193.679 178.408 193.137 177.963 192.692C177.518 192.242 176.813 192.017 175.847 192.017H172.523V196.847ZM190.417 200.54V194.091H192.093V205H190.417V203.153H190.303C190.048 203.707 189.65 204.179 189.11 204.567C188.57 204.95 187.888 205.142 187.065 205.142C186.383 205.142 185.777 204.993 185.246 204.695C184.716 204.392 184.299 203.937 183.996 203.331C183.693 202.72 183.542 201.951 183.542 201.023V194.091H185.218V200.909C185.218 201.705 185.441 202.339 185.886 202.812C186.335 203.286 186.908 203.523 187.604 203.523C188.021 203.523 188.445 203.416 188.876 203.203C189.311 202.99 189.676 202.663 189.969 202.223C190.268 201.783 190.417 201.222 190.417 200.54ZM195.163 205V194.091H196.839V205H195.163ZM196.015 192.273C195.689 192.273 195.407 192.161 195.17 191.939C194.938 191.716 194.822 191.449 194.822 191.136C194.822 190.824 194.938 190.556 195.17 190.334C195.407 190.111 195.689 190 196.015 190C196.342 190 196.621 190.111 196.853 190.334C197.09 190.556 197.208 190.824 197.208 191.136C197.208 191.449 197.09 191.716 196.853 191.939C196.621 192.161 196.342 192.273 196.015 192.273ZM201.585 190.455V205H199.909V190.455H201.585ZM208.775 205.227C207.865 205.227 207.063 204.998 206.367 204.538C205.671 204.074 205.126 203.421 204.733 202.578C204.34 201.731 204.144 200.729 204.144 199.574C204.144 198.428 204.34 197.434 204.733 196.591C205.126 195.748 205.673 195.097 206.374 194.638C207.075 194.179 207.884 193.949 208.803 193.949C209.513 193.949 210.074 194.067 210.486 194.304C210.903 194.536 211.22 194.801 211.438 195.099C211.66 195.393 211.833 195.634 211.956 195.824H212.098V190.455H213.775V205H212.155V203.324H211.956C211.833 203.523 211.658 203.774 211.431 204.077C211.203 204.375 210.879 204.643 210.458 204.879C210.036 205.111 209.475 205.227 208.775 205.227ZM209.002 203.722C209.674 203.722 210.242 203.546 210.706 203.196C211.17 202.841 211.523 202.351 211.765 201.726C212.006 201.096 212.127 200.369 212.127 199.545C212.127 198.731 212.008 198.018 211.772 197.408C211.535 196.792 211.185 196.314 210.721 195.973C210.257 195.627 209.684 195.455 209.002 195.455C208.292 195.455 207.7 195.637 207.226 196.001C206.757 196.361 206.405 196.851 206.168 197.472C205.936 198.087 205.82 198.778 205.82 199.545C205.82 200.322 205.938 201.027 206.175 201.662C206.417 202.292 206.772 202.794 207.24 203.168C207.714 203.537 208.301 203.722 209.002 203.722ZM217.077 205V194.091H218.753V205H217.077ZM217.929 192.273C217.603 192.273 217.321 192.161 217.084 191.939C216.852 191.716 216.736 191.449 216.736 191.136C216.736 190.824 216.852 190.556 217.084 190.334C217.321 190.111 217.603 190 217.929 190C218.256 190 218.535 190.111 218.767 190.334C219.004 190.556 219.123 190.824 219.123 191.136C219.123 191.449 219.004 191.716 218.767 191.939C218.535 192.161 218.256 192.273 217.929 192.273ZM223.499 198.438V205H221.823V194.091H223.442V195.795H223.585C223.84 195.241 224.228 194.796 224.749 194.46C225.27 194.119 225.942 193.949 226.766 193.949C227.505 193.949 228.151 194.1 228.705 194.403C229.259 194.702 229.69 195.156 229.998 195.767C230.306 196.373 230.46 197.14 230.46 198.068V205H228.783V198.182C228.783 197.325 228.561 196.657 228.116 196.179C227.671 195.696 227.06 195.455 226.283 195.455C225.748 195.455 225.27 195.571 224.849 195.803C224.432 196.035 224.103 196.373 223.862 196.818C223.62 197.263 223.499 197.803 223.499 198.438ZM237.926 209.318C237.116 209.318 236.42 209.214 235.838 209.006C235.255 208.802 234.77 208.532 234.382 208.196C233.998 207.865 233.693 207.509 233.466 207.131L234.801 206.193C234.952 206.392 235.144 206.619 235.376 206.875C235.608 207.135 235.925 207.36 236.328 207.55C236.735 207.744 237.268 207.841 237.926 207.841C238.806 207.841 239.533 207.628 240.106 207.202C240.679 206.776 240.966 206.108 240.966 205.199V202.983H240.824C240.7 203.182 240.525 203.428 240.298 203.722C240.075 204.01 239.753 204.268 239.332 204.496C238.915 204.718 238.352 204.83 237.642 204.83C236.761 204.83 235.97 204.621 235.27 204.205C234.574 203.788 234.022 203.182 233.615 202.386C233.212 201.591 233.011 200.625 233.011 199.489C233.011 198.371 233.208 197.398 233.6 196.57C233.993 195.736 234.54 195.092 235.241 194.638C235.942 194.179 236.752 193.949 237.67 193.949C238.38 193.949 238.944 194.067 239.36 194.304C239.782 194.536 240.104 194.801 240.326 195.099C240.554 195.393 240.729 195.634 240.852 195.824H241.022V194.091H242.642V205.312C242.642 206.25 242.429 207.012 242.002 207.599C241.581 208.191 241.013 208.625 240.298 208.899C239.588 209.179 238.797 209.318 237.926 209.318ZM237.869 203.324C238.541 203.324 239.109 203.17 239.574 202.862C240.038 202.554 240.39 202.112 240.632 201.534C240.873 200.956 240.994 200.265 240.994 199.46C240.994 198.674 240.876 197.981 240.639 197.379C240.402 196.778 240.052 196.307 239.588 195.966C239.124 195.625 238.551 195.455 237.869 195.455C237.159 195.455 236.567 195.634 236.093 195.994C235.625 196.354 235.272 196.837 235.035 197.443C234.803 198.049 234.687 198.722 234.687 199.46C234.687 200.218 234.806 200.888 235.042 201.47C235.284 202.048 235.639 202.502 236.108 202.834C236.581 203.161 237.168 203.324 237.869 203.324ZM251.335 205V194.091H252.954V195.795H253.096C253.324 195.213 253.69 194.761 254.197 194.439C254.704 194.112 255.312 193.949 256.022 193.949C256.742 193.949 257.341 194.112 257.819 194.439C258.302 194.761 258.679 195.213 258.949 195.795H259.062C259.342 195.232 259.761 194.785 260.319 194.453C260.878 194.117 261.548 193.949 262.329 193.949C263.305 193.949 264.102 194.254 264.723 194.865C265.343 195.471 265.653 196.416 265.653 197.699V205H263.977V197.699C263.977 196.894 263.757 196.319 263.316 195.973C262.876 195.627 262.358 195.455 261.761 195.455C260.994 195.455 260.4 195.687 259.978 196.151C259.557 196.61 259.346 197.192 259.346 197.898V205H257.642V197.528C257.642 196.908 257.44 196.409 257.038 196.03C256.636 195.646 256.117 195.455 255.483 195.455C255.047 195.455 254.64 195.571 254.261 195.803C253.887 196.035 253.584 196.357 253.352 196.768C253.125 197.176 253.011 197.647 253.011 198.182V205H251.335ZM273.15 205.227C272.165 205.227 271.301 204.993 270.557 204.524C269.819 204.055 269.241 203.4 268.824 202.557C268.412 201.714 268.206 200.729 268.206 199.602C268.206 198.466 268.412 197.474 268.824 196.626C269.241 195.779 269.819 195.121 270.557 194.652C271.301 194.183 272.165 193.949 273.15 193.949C274.134 193.949 274.996 194.183 275.735 194.652C276.478 195.121 277.056 195.779 277.468 196.626C277.884 197.474 278.093 198.466 278.093 199.602C278.093 200.729 277.884 201.714 277.468 202.557C277.056 203.4 276.478 204.055 275.735 204.524C274.996 204.993 274.134 205.227 273.15 205.227ZM273.15 203.722C273.898 203.722 274.513 203.53 274.996 203.146C275.479 202.763 275.837 202.259 276.069 201.634C276.301 201.009 276.417 200.331 276.417 199.602C276.417 198.873 276.301 198.194 276.069 197.564C275.837 196.934 275.479 196.425 274.996 196.037C274.513 195.649 273.898 195.455 273.15 195.455C272.401 195.455 271.786 195.649 271.303 196.037C270.82 196.425 270.462 196.934 270.23 197.564C269.998 198.194 269.882 198.873 269.882 199.602C269.882 200.331 269.998 201.009 270.23 201.634C270.462 202.259 270.82 202.763 271.303 203.146C271.786 203.53 272.401 203.722 273.15 203.722ZM284.771 205.227C283.862 205.227 283.059 204.998 282.363 204.538C281.667 204.074 281.122 203.421 280.729 202.578C280.336 201.731 280.14 200.729 280.14 199.574C280.14 198.428 280.336 197.434 280.729 196.591C281.122 195.748 281.669 195.097 282.37 194.638C283.071 194.179 283.88 193.949 284.799 193.949C285.509 193.949 286.07 194.067 286.482 194.304C286.899 194.536 287.216 194.801 287.434 195.099C287.656 195.393 287.829 195.634 287.952 195.824H288.094V190.455H289.771V205H288.151V203.324H287.952C287.829 203.523 287.654 203.774 287.427 204.077C287.2 204.375 286.875 204.643 286.454 204.879C286.032 205.111 285.471 205.227 284.771 205.227ZM284.998 203.722C285.67 203.722 286.238 203.546 286.702 203.196C287.166 202.841 287.519 202.351 287.761 201.726C288.002 201.096 288.123 200.369 288.123 199.545C288.123 198.731 288.004 198.018 287.768 197.408C287.531 196.792 287.181 196.314 286.717 195.973C286.253 195.627 285.68 195.455 284.998 195.455C284.288 195.455 283.696 195.637 283.222 196.001C282.754 196.361 282.401 196.851 282.164 197.472C281.932 198.087 281.816 198.778 281.816 199.545C281.816 200.322 281.934 201.027 282.171 201.662C282.413 202.292 282.768 202.794 283.237 203.168C283.71 203.537 284.297 203.722 284.998 203.722ZM297.647 205.227C296.596 205.227 295.689 204.995 294.927 204.531C294.169 204.062 293.585 203.409 293.173 202.571C292.765 201.728 292.562 200.748 292.562 199.631C292.562 198.513 292.765 197.528 293.173 196.676C293.585 195.819 294.157 195.152 294.891 194.673C295.63 194.19 296.492 193.949 297.477 193.949C298.045 193.949 298.606 194.044 299.16 194.233C299.714 194.422 300.218 194.73 300.673 195.156C301.127 195.578 301.489 196.136 301.759 196.832C302.029 197.528 302.164 198.385 302.164 199.403V200.114H293.755V198.665H300.46C300.46 198.049 300.336 197.5 300.09 197.017C299.849 196.534 299.503 196.153 299.053 195.874C298.608 195.594 298.083 195.455 297.477 195.455C296.809 195.455 296.231 195.62 295.744 195.952C295.261 196.278 294.889 196.705 294.629 197.23C294.368 197.756 294.238 198.319 294.238 198.92V199.886C294.238 200.71 294.38 201.409 294.664 201.982C294.953 202.55 295.353 202.983 295.864 203.281C296.376 203.575 296.97 203.722 297.647 203.722C298.087 203.722 298.485 203.66 298.84 203.537C299.2 203.409 299.51 203.22 299.771 202.969C300.031 202.713 300.232 202.396 300.374 202.017L301.994 202.472C301.823 203.021 301.537 203.504 301.134 203.92C300.732 204.332 300.235 204.654 299.643 204.886C299.051 205.114 298.386 205.227 297.647 205.227ZM304.714 205V194.091H306.333V195.739H306.447C306.646 195.199 307.005 194.761 307.526 194.425C308.047 194.089 308.634 193.92 309.288 193.92C309.411 193.92 309.565 193.923 309.749 193.928C309.934 193.932 310.074 193.939 310.168 193.949V195.653C310.112 195.639 309.981 195.618 309.778 195.589C309.579 195.556 309.368 195.54 309.146 195.54C308.615 195.54 308.142 195.651 307.725 195.874C307.313 196.091 306.987 196.394 306.745 196.783C306.508 197.166 306.39 197.604 306.39 198.097V205H304.714ZM313.831 198.438V205H312.155V194.091H313.775V195.795H313.917C314.172 195.241 314.56 194.796 315.081 194.46C315.602 194.119 316.275 193.949 317.098 193.949C317.837 193.949 318.483 194.1 319.037 194.403C319.591 194.702 320.022 195.156 320.33 195.767C320.638 196.373 320.792 197.14 320.792 198.068V205H319.115V198.182C319.115 197.325 318.893 196.657 318.448 196.179C318.003 195.696 317.392 195.455 316.615 195.455C316.08 195.455 315.602 195.571 315.181 195.803C314.764 196.035 314.435 196.373 314.194 196.818C313.952 197.263 313.831 197.803 313.831 198.438ZM337.207 196.534L335.701 196.96C335.606 196.709 335.467 196.465 335.282 196.229C335.102 195.987 334.856 195.788 334.543 195.632C334.231 195.476 333.831 195.398 333.343 195.398C332.675 195.398 332.119 195.552 331.674 195.859C331.234 196.162 331.013 196.548 331.013 197.017C331.013 197.434 331.165 197.763 331.468 198.004C331.771 198.246 332.245 198.447 332.888 198.608L334.508 199.006C335.483 199.242 336.21 199.605 336.688 200.092C337.166 200.575 337.406 201.198 337.406 201.96C337.406 202.585 337.226 203.144 336.866 203.636C336.511 204.129 336.013 204.517 335.374 204.801C334.735 205.085 333.992 205.227 333.144 205.227C332.031 205.227 331.111 204.986 330.381 204.503C329.652 204.02 329.191 203.314 328.996 202.386L330.587 201.989C330.739 202.576 331.025 203.016 331.447 203.31C331.873 203.603 332.429 203.75 333.116 203.75C333.897 203.75 334.517 203.584 334.977 203.253C335.441 202.917 335.673 202.514 335.673 202.045C335.673 201.667 335.54 201.349 335.275 201.094C335.01 200.833 334.603 200.639 334.053 200.511L332.235 200.085C331.236 199.848 330.502 199.482 330.033 198.984C329.569 198.482 329.337 197.855 329.337 197.102C329.337 196.487 329.51 195.942 329.856 195.469C330.206 194.995 330.682 194.624 331.283 194.354C331.889 194.084 332.576 193.949 333.343 193.949C334.423 193.949 335.27 194.186 335.886 194.659C336.506 195.133 336.946 195.758 337.207 196.534ZM344.36 205.227C343.376 205.227 342.511 204.993 341.768 204.524C341.029 204.055 340.452 203.4 340.035 202.557C339.623 201.714 339.417 200.729 339.417 199.602C339.417 198.466 339.623 197.474 340.035 196.626C340.452 195.779 341.029 195.121 341.768 194.652C342.511 194.183 343.376 193.949 344.36 193.949C345.345 193.949 346.207 194.183 346.946 194.652C347.689 195.121 348.267 195.779 348.679 196.626C349.095 197.474 349.304 198.466 349.304 199.602C349.304 200.729 349.095 201.714 348.679 202.557C348.267 203.4 347.689 204.055 346.946 204.524C346.207 204.993 345.345 205.227 344.36 205.227ZM344.36 203.722C345.109 203.722 345.724 203.53 346.207 203.146C346.69 202.763 347.047 202.259 347.279 201.634C347.511 201.009 347.627 200.331 347.627 199.602C347.627 198.873 347.511 198.194 347.279 197.564C347.047 196.934 346.69 196.425 346.207 196.037C345.724 195.649 345.109 195.455 344.36 195.455C343.612 195.455 342.997 195.649 342.514 196.037C342.031 196.425 341.673 196.934 341.441 197.564C341.209 198.194 341.093 198.873 341.093 199.602C341.093 200.331 341.209 201.009 341.441 201.634C341.673 202.259 342.031 202.763 342.514 203.146C342.997 203.53 343.612 203.722 344.36 203.722ZM356.72 194.091V195.511H350.839V194.091H356.72ZM352.601 205V192.585C352.601 191.96 352.748 191.439 353.041 191.023C353.335 190.606 353.716 190.294 354.185 190.085C354.653 189.877 355.148 189.773 355.669 189.773C356.081 189.773 356.417 189.806 356.678 189.872C356.938 189.938 357.132 190 357.26 190.057L356.777 191.506C356.692 191.477 356.573 191.442 356.422 191.399C356.275 191.357 356.081 191.335 355.839 191.335C355.286 191.335 354.885 191.475 354.639 191.754C354.398 192.034 354.277 192.443 354.277 192.983V205H352.601ZM363.814 194.091V195.511H358.16V194.091H363.814ZM359.808 191.477H361.484V201.875C361.484 202.348 361.553 202.704 361.69 202.94C361.832 203.172 362.012 203.329 362.23 203.409C362.452 203.485 362.687 203.523 362.933 203.523C363.118 203.523 363.269 203.513 363.387 203.494C363.506 203.471 363.6 203.452 363.672 203.438L364.012 204.943C363.899 204.986 363.74 205.028 363.537 205.071C363.333 205.118 363.075 205.142 362.762 205.142C362.289 205.142 361.825 205.04 361.37 204.837C360.921 204.633 360.547 204.323 360.248 203.906C359.955 203.49 359.808 202.964 359.808 202.33V191.477ZM368.806 205L365.483 194.091H367.244L369.602 202.443H369.716L372.045 194.091H373.835L376.136 202.415H376.25L378.608 194.091H380.369L377.045 205H375.397L373.011 196.619H372.841L370.454 205H368.806ZM385.795 205.256C385.104 205.256 384.476 205.125 383.913 204.865C383.35 204.6 382.902 204.219 382.571 203.722C382.239 203.22 382.074 202.614 382.074 201.903C382.074 201.278 382.197 200.772 382.443 200.384C382.689 199.991 383.018 199.683 383.43 199.46C383.842 199.238 384.297 199.072 384.794 198.963C385.296 198.849 385.8 198.759 386.306 198.693C386.969 198.608 387.507 198.544 387.919 198.501C388.335 198.454 388.638 198.376 388.828 198.267C389.022 198.158 389.119 197.969 389.119 197.699V197.642C389.119 196.941 388.927 196.397 388.544 196.009C388.165 195.62 387.59 195.426 386.818 195.426C386.018 195.426 385.39 195.601 384.936 195.952C384.481 196.302 384.162 196.676 383.977 197.074L382.386 196.506C382.67 195.843 383.049 195.327 383.522 194.957C384.001 194.583 384.521 194.323 385.085 194.176C385.653 194.025 386.212 193.949 386.761 193.949C387.111 193.949 387.514 193.991 387.968 194.077C388.428 194.157 388.87 194.325 389.297 194.581C389.727 194.837 390.085 195.223 390.369 195.739C390.653 196.255 390.795 196.946 390.795 197.812V205H389.119V203.523H389.034C388.92 203.759 388.731 204.013 388.466 204.283C388.2 204.553 387.848 204.782 387.407 204.972C386.967 205.161 386.43 205.256 385.795 205.256ZM386.051 203.75C386.714 203.75 387.272 203.62 387.727 203.359C388.186 203.099 388.532 202.763 388.764 202.351C389.001 201.939 389.119 201.506 389.119 201.051V199.517C389.048 199.602 388.892 199.68 388.65 199.751C388.413 199.818 388.139 199.877 387.826 199.929C387.519 199.976 387.218 200.019 386.924 200.057C386.636 200.09 386.401 200.118 386.221 200.142C385.786 200.199 385.378 200.291 385 200.419C384.626 200.542 384.323 200.729 384.091 200.98C383.863 201.226 383.75 201.562 383.75 201.989C383.75 202.571 383.965 203.011 384.396 203.31C384.832 203.603 385.383 203.75 386.051 203.75ZM393.854 205V194.091H395.474V195.739H395.587C395.786 195.199 396.146 194.761 396.667 194.425C397.188 194.089 397.775 193.92 398.428 193.92C398.551 193.92 398.705 193.923 398.89 193.928C399.075 193.932 399.214 193.939 399.309 193.949V195.653C399.252 195.639 399.122 195.618 398.918 195.589C398.719 195.556 398.509 195.54 398.286 195.54C397.756 195.54 397.282 195.651 396.866 195.874C396.454 196.091 396.127 196.394 395.886 196.783C395.649 197.166 395.531 197.604 395.531 198.097V205H393.854ZM405.538 205.227C404.487 205.227 403.58 204.995 402.817 204.531C402.06 204.062 401.475 203.409 401.063 202.571C400.656 201.728 400.452 200.748 400.452 199.631C400.452 198.513 400.656 197.528 401.063 196.676C401.475 195.819 402.048 195.152 402.782 194.673C403.521 194.19 404.382 193.949 405.367 193.949C405.935 193.949 406.496 194.044 407.05 194.233C407.604 194.422 408.109 194.73 408.563 195.156C409.018 195.578 409.38 196.136 409.65 196.832C409.92 197.528 410.055 198.385 410.055 199.403V200.114H401.646V198.665H408.35C408.35 198.049 408.227 197.5 407.981 197.017C407.739 196.534 407.394 196.153 406.944 195.874C406.499 195.594 405.973 195.455 405.367 195.455C404.7 195.455 404.122 195.62 403.634 195.952C403.151 196.278 402.78 196.705 402.519 197.23C402.259 197.756 402.129 198.319 402.129 198.92V199.886C402.129 200.71 402.271 201.409 402.555 201.982C402.844 202.55 403.244 202.983 403.755 203.281C404.266 203.575 404.861 203.722 405.538 203.722C405.978 203.722 406.376 203.66 406.731 203.537C407.091 203.409 407.401 203.22 407.661 202.969C407.922 202.713 408.123 202.396 408.265 202.017L409.884 202.472C409.714 203.021 409.427 203.504 409.025 203.92C408.622 204.332 408.125 204.654 407.533 204.886C406.942 205.114 406.276 205.227 405.538 205.227ZM415.104 203.011L414.991 203.778C414.91 204.318 414.787 204.896 414.621 205.511C414.46 206.127 414.292 206.707 414.117 207.251C413.942 207.796 413.798 208.229 413.684 208.551H412.406C412.467 208.248 412.548 207.848 412.647 207.351C412.746 206.854 412.846 206.297 412.945 205.682C413.049 205.071 413.135 204.446 413.201 203.807L413.286 203.011H415.104ZM426.306 205L422.983 194.091H424.744L427.102 202.443H427.216L429.545 194.091H431.335L433.636 202.415H433.75L436.108 194.091H437.869L434.545 205H432.897L430.511 196.619H430.341L427.954 205H426.306ZM440.085 205V194.091H441.761V205H440.085ZM440.937 192.273C440.61 192.273 440.329 192.161 440.092 191.939C439.86 191.716 439.744 191.449 439.744 191.136C439.744 190.824 439.86 190.556 440.092 190.334C440.329 190.111 440.61 190 440.937 190C441.264 190 441.543 190.111 441.775 190.334C442.012 190.556 442.13 190.824 442.13 191.136C442.13 191.449 442.012 191.716 441.775 191.939C441.543 192.161 441.264 192.273 440.937 192.273ZM449.575 194.091V195.511H443.922V194.091H449.575ZM445.57 191.477H447.246V201.875C447.246 202.348 447.314 202.704 447.452 202.94C447.594 203.172 447.774 203.329 447.991 203.409C448.214 203.485 448.448 203.523 448.695 203.523C448.879 203.523 449.031 203.513 449.149 203.494C449.268 203.471 449.362 203.452 449.433 203.438L449.774 204.943C449.661 204.986 449.502 205.028 449.298 205.071C449.095 205.118 448.837 205.142 448.524 205.142C448.051 205.142 447.587 205.04 447.132 204.837C446.682 204.633 446.308 204.323 446.01 203.906C445.716 203.49 445.57 202.964 445.57 202.33V191.477ZM454.007 198.438V205H452.331V190.455H454.007V195.795H454.149C454.405 195.232 454.788 194.785 455.3 194.453C455.816 194.117 456.502 193.949 457.359 193.949C458.103 193.949 458.754 194.098 459.312 194.396C459.871 194.69 460.304 195.142 460.612 195.753C460.925 196.359 461.081 197.131 461.081 198.068V205H459.405V198.182C459.405 197.315 459.18 196.645 458.73 196.172C458.285 195.694 457.667 195.455 456.876 195.455C456.327 195.455 455.835 195.571 455.399 195.803C454.968 196.035 454.627 196.373 454.376 196.818C454.13 197.263 454.007 197.803 454.007 198.438ZM468.579 205.227C467.594 205.227 466.73 204.993 465.987 204.524C465.248 204.055 464.671 203.4 464.254 202.557C463.842 201.714 463.636 200.729 463.636 199.602C463.636 198.466 463.842 197.474 464.254 196.626C464.671 195.779 465.248 195.121 465.987 194.652C466.73 194.183 467.594 193.949 468.579 193.949C469.564 193.949 470.426 194.183 471.164 194.652C471.908 195.121 472.485 195.779 472.897 196.626C473.314 197.474 473.522 198.466 473.522 199.602C473.522 200.729 473.314 201.714 472.897 202.557C472.485 203.4 471.908 204.055 471.164 204.524C470.426 204.993 469.564 205.227 468.579 205.227ZM468.579 203.722C469.327 203.722 469.943 203.53 470.426 203.146C470.909 202.763 471.266 202.259 471.498 201.634C471.73 201.009 471.846 200.331 471.846 199.602C471.846 198.873 471.73 198.194 471.498 197.564C471.266 196.934 470.909 196.425 470.426 196.037C469.943 195.649 469.327 195.455 468.579 195.455C467.831 195.455 467.216 195.649 466.733 196.037C466.25 196.425 465.892 196.934 465.66 197.564C465.428 198.194 465.312 198.873 465.312 199.602C465.312 200.331 465.428 201.009 465.66 201.634C465.892 202.259 466.25 202.763 466.733 203.146C467.216 203.53 467.831 203.722 468.579 203.722ZM482.956 200.54V194.091H484.632V205H482.956V203.153H482.842C482.587 203.707 482.189 204.179 481.649 204.567C481.109 204.95 480.428 205.142 479.604 205.142C478.922 205.142 478.316 204.993 477.786 204.695C477.255 204.392 476.839 203.937 476.536 203.331C476.232 202.72 476.081 201.951 476.081 201.023V194.091H477.757V200.909C477.757 201.705 477.98 202.339 478.425 202.812C478.875 203.286 479.447 203.523 480.143 203.523C480.56 203.523 480.984 203.416 481.415 203.203C481.85 202.99 482.215 202.663 482.509 202.223C482.807 201.783 482.956 201.222 482.956 200.54ZM492.446 194.091V195.511H486.793V194.091H492.446ZM488.441 191.477H490.117V201.875C490.117 202.348 490.185 202.704 490.323 202.94C490.465 203.172 490.645 203.329 490.863 203.409C491.085 203.485 491.319 203.523 491.566 203.523C491.75 203.523 491.902 203.513 492.02 203.494C492.139 203.471 492.233 203.452 492.304 203.438L492.645 204.943C492.532 204.986 492.373 205.028 492.169 205.071C491.966 205.118 491.708 205.142 491.395 205.142C490.922 205.142 490.458 205.04 490.003 204.837C489.553 204.633 489.179 204.323 488.881 203.906C488.587 203.49 488.441 202.964 488.441 202.33V191.477ZM508.32 196.534L506.814 196.96C506.72 196.709 506.58 196.465 506.395 196.229C506.215 195.987 505.969 195.788 505.657 195.632C505.344 195.476 504.944 195.398 504.456 195.398C503.789 195.398 503.232 195.552 502.787 195.859C502.347 196.162 502.127 196.548 502.127 197.017C502.127 197.434 502.278 197.763 502.581 198.004C502.884 198.246 503.358 198.447 504.002 198.608L505.621 199.006C506.596 199.242 507.323 199.605 507.801 200.092C508.28 200.575 508.519 201.198 508.519 201.96C508.519 202.585 508.339 203.144 507.979 203.636C507.624 204.129 507.127 204.517 506.488 204.801C505.848 205.085 505.105 205.227 504.257 205.227C503.145 205.227 502.224 204.986 501.495 204.503C500.766 204.02 500.304 203.314 500.11 202.386L501.701 201.989C501.852 202.576 502.139 203.016 502.56 203.31C502.986 203.603 503.542 203.75 504.229 203.75C505.01 203.75 505.631 203.584 506.09 203.253C506.554 202.917 506.786 202.514 506.786 202.045C506.786 201.667 506.653 201.349 506.388 201.094C506.123 200.833 505.716 200.639 505.167 200.511L503.348 200.085C502.349 199.848 501.615 199.482 501.147 198.984C500.683 198.482 500.451 197.855 500.451 197.102C500.451 196.487 500.623 195.942 500.969 195.469C501.319 194.995 501.795 194.624 502.397 194.354C503.003 194.084 503.689 193.949 504.456 193.949C505.536 193.949 506.383 194.186 506.999 194.659C507.619 195.133 508.06 195.758 508.32 196.534ZM512.718 198.438V205H511.042V190.455H512.718V195.795H512.86C513.116 195.232 513.499 194.785 514.011 194.453C514.527 194.117 515.213 193.949 516.07 193.949C516.814 193.949 517.465 194.098 518.023 194.396C518.582 194.69 519.015 195.142 519.323 195.753C519.636 196.359 519.792 197.131 519.792 198.068V205H518.116V198.182C518.116 197.315 517.891 196.645 517.441 196.172C516.996 195.694 516.378 195.455 515.587 195.455C515.038 195.455 514.546 195.571 514.11 195.803C513.679 196.035 513.338 196.373 513.087 196.818C512.841 197.263 512.718 197.803 512.718 198.438ZM527.29 205.227C526.305 205.227 525.441 204.993 524.698 204.524C523.959 204.055 523.382 203.4 522.965 202.557C522.553 201.714 522.347 200.729 522.347 199.602C522.347 198.466 522.553 197.474 522.965 196.626C523.382 195.779 523.959 195.121 524.698 194.652C525.441 194.183 526.305 193.949 527.29 193.949C528.275 193.949 529.137 194.183 529.875 194.652C530.619 195.121 531.196 195.779 531.608 196.626C532.025 197.474 532.233 198.466 532.233 199.602C532.233 200.729 532.025 201.714 531.608 202.557C531.196 203.4 530.619 204.055 529.875 204.524C529.137 204.993 528.275 205.227 527.29 205.227ZM527.29 203.722C528.038 203.722 528.654 203.53 529.137 203.146C529.62 202.763 529.977 202.259 530.209 201.634C530.441 201.009 530.557 200.331 530.557 199.602C530.557 198.873 530.441 198.194 530.209 197.564C529.977 196.934 529.62 196.425 529.137 196.037C528.654 195.649 528.038 195.455 527.29 195.455C526.542 195.455 525.926 195.649 525.444 196.037C524.961 196.425 524.603 196.934 524.371 197.564C524.139 198.194 524.023 198.873 524.023 199.602C524.023 200.331 524.139 201.009 524.371 201.634C524.603 202.259 524.961 202.763 525.444 203.146C525.926 203.53 526.542 203.722 527.29 203.722ZM534.792 205V194.091H536.411V195.739H536.525C536.724 195.199 537.084 194.761 537.604 194.425C538.125 194.089 538.712 193.92 539.366 193.92C539.489 193.92 539.643 193.923 539.827 193.928C540.012 193.932 540.152 193.939 540.246 193.949V195.653C540.19 195.639 540.059 195.618 539.856 195.589C539.657 195.556 539.446 195.54 539.224 195.54C538.693 195.54 538.22 195.651 537.803 195.874C537.391 196.091 537.065 196.394 536.823 196.783C536.586 197.166 536.468 197.604 536.468 198.097V205H534.792ZM547.661 194.091V195.511H542.008V194.091H547.661ZM543.656 191.477H545.332V201.875C545.332 202.348 545.4 202.704 545.538 202.94C545.68 203.172 545.86 203.329 546.077 203.409C546.3 203.485 546.534 203.523 546.781 203.523C546.965 203.523 547.117 203.513 547.235 203.494C547.353 203.471 547.448 203.452 547.519 203.438L547.86 204.943C547.746 204.986 547.588 205.028 547.384 205.071C547.181 205.118 546.923 205.142 546.61 205.142C546.137 205.142 545.673 205.04 545.218 204.837C544.768 204.633 544.394 204.323 544.096 203.906C543.802 203.49 543.656 202.964 543.656 202.33V191.477ZM554.497 205.227C553.474 205.227 552.594 204.986 551.855 204.503C551.116 204.02 550.548 203.355 550.151 202.507C549.753 201.66 549.554 200.691 549.554 199.602C549.554 198.494 549.758 197.517 550.165 196.669C550.577 195.817 551.15 195.152 551.884 194.673C552.622 194.19 553.484 193.949 554.469 193.949C555.236 193.949 555.927 194.091 556.543 194.375C557.158 194.659 557.662 195.057 558.055 195.568C558.448 196.08 558.692 196.676 558.787 197.358H557.111C556.983 196.861 556.699 196.42 556.259 196.037C555.823 195.649 555.236 195.455 554.497 195.455C553.844 195.455 553.271 195.625 552.778 195.966C552.291 196.302 551.91 196.778 551.635 197.393C551.365 198.004 551.23 198.722 551.23 199.545C551.23 200.388 551.363 201.122 551.628 201.747C551.898 202.372 552.277 202.857 552.764 203.203C553.257 203.549 553.834 203.722 554.497 203.722C554.933 203.722 555.328 203.646 555.683 203.494C556.038 203.343 556.339 203.125 556.585 202.841C556.831 202.557 557.007 202.216 557.111 201.818H558.787C558.692 202.462 558.458 203.042 558.084 203.558C557.714 204.07 557.224 204.477 556.614 204.78C556.008 205.078 555.302 205.227 554.497 205.227ZM568.112 200.54V194.091H569.788V205H568.112V203.153H567.999C567.743 203.707 567.345 204.179 566.805 204.567C566.266 204.95 565.584 205.142 564.76 205.142C564.078 205.142 563.472 204.993 562.942 204.695C562.411 204.392 561.995 203.937 561.692 203.331C561.389 202.72 561.237 201.951 561.237 201.023V194.091H562.913V200.909C562.913 201.705 563.136 202.339 563.581 202.812C564.031 203.286 564.604 203.523 565.3 203.523C565.716 203.523 566.14 203.416 566.571 203.203C567.007 202.99 567.371 202.663 567.665 202.223C567.963 201.783 568.112 201.222 568.112 200.54ZM577.603 194.091V195.511H571.949V194.091H577.603ZM573.597 191.477H575.273V201.875C575.273 202.348 575.342 202.704 575.479 202.94C575.621 203.172 575.801 203.329 576.019 203.409C576.241 203.485 576.476 203.523 576.722 203.523C576.907 203.523 577.058 203.513 577.176 203.494C577.295 203.471 577.39 203.452 577.461 203.438L577.801 204.943C577.688 204.986 577.529 205.028 577.326 205.071C577.122 205.118 576.864 205.142 576.551 205.142C576.078 205.142 575.614 205.04 575.159 204.837C574.71 204.633 574.336 204.323 574.037 203.906C573.744 203.49 573.597 202.964 573.597 202.33V191.477ZM587.656 196.534L586.15 196.96C586.056 196.709 585.916 196.465 585.731 196.229C585.551 195.987 585.305 195.788 584.993 195.632C584.68 195.476 584.28 195.398 583.792 195.398C583.125 195.398 582.568 195.552 582.123 195.859C581.683 196.162 581.463 196.548 581.463 197.017C581.463 197.434 581.614 197.763 581.917 198.004C582.22 198.246 582.694 198.447 583.338 198.608L584.957 199.006C585.932 199.242 586.659 199.605 587.137 200.092C587.616 200.575 587.855 201.198 587.855 201.96C587.855 202.585 587.675 203.144 587.315 203.636C586.96 204.129 586.463 204.517 585.824 204.801C585.184 205.085 584.441 205.227 583.593 205.227C582.481 205.227 581.56 204.986 580.831 204.503C580.101 204.02 579.64 203.314 579.446 202.386L581.037 201.989C581.188 202.576 581.475 203.016 581.896 203.31C582.322 203.603 582.878 203.75 583.565 203.75C584.346 203.75 584.967 203.584 585.426 203.253C585.89 202.917 586.122 202.514 586.122 202.045C586.122 201.667 585.989 201.349 585.724 201.094C585.459 200.833 585.052 200.639 584.502 200.511L582.684 200.085C581.685 199.848 580.951 199.482 580.483 198.984C580.019 198.482 579.787 197.855 579.787 197.102C579.787 196.487 579.959 195.942 580.305 195.469C580.655 194.995 581.131 194.624 581.733 194.354C582.339 194.084 583.025 193.949 583.792 193.949C584.872 193.949 585.719 194.186 586.335 194.659C586.955 195.133 587.395 195.758 587.656 196.534ZM591.599 205.114C591.249 205.114 590.948 204.988 590.697 204.737C590.446 204.486 590.321 204.186 590.321 203.835C590.321 203.485 590.446 203.184 590.697 202.933C590.948 202.682 591.249 202.557 591.599 202.557C591.95 202.557 592.25 202.682 592.501 202.933C592.752 203.184 592.878 203.485 592.878 203.835C592.878 204.067 592.819 204.28 592.7 204.474C592.587 204.669 592.433 204.825 592.239 204.943C592.049 205.057 591.836 205.114 591.599 205.114Z" fill="white"/>
<path d="M498.912 151.552H513.248V160H487.968V115.072H498.912V151.552ZM516.292 142.08C516.292 138.411 516.975 135.189 518.34 132.416C519.748 129.643 521.647 127.509 524.036 126.016C526.425 124.523 529.092 123.776 532.036 123.776C534.553 123.776 536.751 124.288 538.628 125.312C540.548 126.336 542.02 127.68 543.044 129.344V124.288H553.988V160H543.044V154.944C541.977 156.608 540.484 157.952 538.564 158.976C536.687 160 534.489 160.512 531.972 160.512C529.071 160.512 526.425 159.765 524.036 158.272C521.647 156.736 519.748 154.581 518.34 151.808C516.975 148.992 516.292 145.749 516.292 142.08ZM543.044 142.144C543.044 139.413 542.276 137.259 540.74 135.68C539.247 134.101 537.412 133.312 535.236 133.312C533.06 133.312 531.204 134.101 529.668 135.68C528.175 137.216 527.428 139.349 527.428 142.08C527.428 144.811 528.175 146.987 529.668 148.608C531.204 150.187 533.06 150.976 535.236 150.976C537.412 150.976 539.247 150.187 540.74 148.608C542.276 147.029 543.044 144.875 543.044 142.144ZM572.85 129.344C573.874 127.68 575.346 126.336 577.266 125.312C579.186 124.288 581.383 123.776 583.858 123.776C586.802 123.776 589.468 124.523 591.858 126.016C594.247 127.509 596.124 129.643 597.49 132.416C598.898 135.189 599.602 138.411 599.602 142.08C599.602 145.749 598.898 148.992 597.49 151.808C596.124 154.581 594.247 156.736 591.858 158.272C589.468 159.765 586.802 160.512 583.858 160.512C581.34 160.512 579.143 160.021 577.266 159.04C575.388 158.016 573.916 156.672 572.85 155.008V160H561.906V112.64H572.85V129.344ZM588.466 142.08C588.466 139.349 587.698 137.216 586.162 135.68C584.668 134.101 582.812 133.312 580.594 133.312C578.418 133.312 576.562 134.101 575.026 135.68C573.532 137.259 572.786 139.413 572.786 142.144C572.786 144.875 573.532 147.029 575.026 148.608C576.562 150.187 578.418 150.976 580.594 150.976C582.77 150.976 584.626 150.187 586.162 148.608C587.698 146.987 588.466 144.811 588.466 142.08ZM619.871 160.512C616.756 160.512 613.983 159.979 611.551 158.912C609.119 157.845 607.199 156.395 605.791 154.56C604.383 152.683 603.594 150.592 603.423 148.288H614.239C614.367 149.525 614.943 150.528 615.967 151.296C616.991 152.064 618.25 152.448 619.743 152.448C621.108 152.448 622.154 152.192 622.879 151.68C623.647 151.125 624.031 150.421 624.031 149.568C624.031 148.544 623.498 147.797 622.431 147.328C621.364 146.816 619.636 146.261 617.247 145.664C614.687 145.067 612.554 144.448 610.847 143.808C609.14 143.125 607.668 142.08 606.431 140.672C605.194 139.221 604.575 137.28 604.575 134.848C604.575 132.8 605.13 130.944 606.239 129.28C607.391 127.573 609.055 126.229 611.231 125.248C613.45 124.267 616.074 123.776 619.103 123.776C623.583 123.776 627.103 124.885 629.663 127.104C632.266 129.323 633.759 132.267 634.143 135.936H624.031C623.86 134.699 623.306 133.717 622.367 132.992C621.471 132.267 620.276 131.904 618.783 131.904C617.503 131.904 616.522 132.16 615.839 132.672C615.156 133.141 614.815 133.803 614.815 134.656C614.815 135.68 615.348 136.448 616.415 136.96C617.524 137.472 619.231 137.984 621.535 138.496C624.18 139.179 626.335 139.861 627.999 140.544C629.663 141.184 631.114 142.251 632.351 143.744C633.631 145.195 634.292 147.157 634.335 149.632C634.335 151.723 633.738 153.6 632.543 155.264C631.391 156.885 629.706 158.165 627.487 159.104C625.311 160.043 622.772 160.512 619.871 160.512Z" fill="#AD47FF"/>
<path d="M157.936 152.064H141.168L138.48 160H127.024L143.28 115.072H155.952L172.208 160H160.624L157.936 152.064ZM155.12 143.616L149.552 127.168L144.048 143.616H155.12ZM188.1 129.344C189.166 127.68 190.638 126.336 192.516 125.312C194.393 124.288 196.59 123.776 199.108 123.776C202.052 123.776 204.718 124.523 207.108 126.016C209.497 127.509 211.374 129.643 212.74 132.416C214.148 135.189 214.852 138.411 214.852 142.08C214.852 145.749 214.148 148.992 212.74 151.808C211.374 154.581 209.497 156.736 207.108 158.272C204.718 159.765 202.052 160.512 199.108 160.512C196.633 160.512 194.436 160 192.516 158.976C190.638 157.952 189.166 156.629 188.1 155.008V177.024H177.156V124.288H188.1V129.344ZM203.716 142.08C203.716 139.349 202.948 137.216 201.412 135.68C199.918 134.101 198.062 133.312 195.844 133.312C193.668 133.312 191.812 134.101 190.276 135.68C188.782 137.259 188.036 139.413 188.036 142.144C188.036 144.875 188.782 147.029 190.276 148.608C191.812 150.187 193.668 150.976 195.844 150.976C198.02 150.976 199.876 150.187 201.412 148.608C202.948 146.987 203.716 144.811 203.716 142.08ZM231.537 129.344C232.604 127.68 234.076 126.336 235.953 125.312C237.83 124.288 240.028 123.776 242.545 123.776C245.489 123.776 248.156 124.523 250.545 126.016C252.934 127.509 254.812 129.643 256.177 132.416C257.585 135.189 258.289 138.411 258.289 142.08C258.289 145.749 257.585 148.992 256.177 151.808C254.812 154.581 252.934 156.736 250.545 158.272C248.156 159.765 245.489 160.512 242.545 160.512C240.07 160.512 237.873 160 235.953 158.976C234.076 157.952 232.604 156.629 231.537 155.008V177.024H220.593V124.288H231.537V129.344ZM247.153 142.08C247.153 139.349 246.385 137.216 244.849 135.68C243.356 134.101 241.5 133.312 239.281 133.312C237.105 133.312 235.249 134.101 233.713 135.68C232.22 137.259 231.473 139.413 231.473 142.144C231.473 144.875 232.22 147.029 233.713 148.608C235.249 150.187 237.105 150.976 239.281 150.976C241.457 150.976 243.313 150.187 244.849 148.608C246.385 146.987 247.153 144.811 247.153 142.08ZM278.559 160.512C275.444 160.512 272.671 159.979 270.239 158.912C267.807 157.845 265.887 156.395 264.479 154.56C263.071 152.683 262.281 150.592 262.111 148.288H272.927C273.055 149.525 273.631 150.528 274.655 151.296C275.679 152.064 276.937 152.448 278.431 152.448C279.796 152.448 280.841 152.192 281.567 151.68C282.335 151.125 282.719 150.421 282.719 149.568C282.719 148.544 282.185 147.797 281.119 147.328C280.052 146.816 278.324 146.261 275.935 145.664C273.375 145.067 271.241 144.448 269.535 143.808C267.828 143.125 266.356 142.08 265.119 140.672C263.881 139.221 263.263 137.28 263.263 134.848C263.263 132.8 263.817 130.944 264.927 129.28C266.079 127.573 267.743 126.229 269.919 125.248C272.137 124.267 274.761 123.776 277.791 123.776C282.271 123.776 285.791 124.885 288.351 127.104C290.953 129.323 292.447 132.267 292.831 135.936H282.719C282.548 134.699 281.993 133.717 281.055 132.992C280.159 132.267 278.964 131.904 277.471 131.904C276.191 131.904 275.209 132.16 274.527 132.672C273.844 133.141 273.503 133.803 273.503 134.656C273.503 135.68 274.036 136.448 275.103 136.96C276.212 137.472 277.919 137.984 280.223 138.496C282.868 139.179 285.023 139.861 286.687 140.544C288.351 141.184 289.801 142.251 291.039 143.744C292.319 145.195 292.98 147.157 293.023 149.632C293.023 151.723 292.425 153.6 291.231 155.264C290.079 156.885 288.393 158.165 286.175 159.104C283.999 160.043 281.46 160.512 278.559 160.512ZM319.622 150.72V160H314.054C310.086 160 306.993 159.04 304.774 157.12C302.555 155.157 301.446 151.979 301.446 147.584V133.376H297.094V124.288H301.446V115.584H312.39V124.288H319.558V133.376H312.39V147.712C312.39 148.779 312.646 149.547 313.158 150.016C313.67 150.485 314.523 150.72 315.718 150.72H319.622ZM336.662 130.24C337.942 128.277 339.542 126.741 341.462 125.632C343.382 124.48 345.515 123.904 347.862 123.904V135.488H344.854C342.123 135.488 340.075 136.085 338.71 137.28C337.345 138.432 336.662 140.48 336.662 143.424V160H325.718V124.288H336.662V130.24ZM350.917 142.08C350.917 138.411 351.6 135.189 352.965 132.416C354.373 129.643 356.272 127.509 358.661 126.016C361.05 124.523 363.717 123.776 366.661 123.776C369.178 123.776 371.376 124.288 373.253 125.312C375.173 126.336 376.645 127.68 377.669 129.344V124.288H388.613V160H377.669V154.944C376.602 156.608 375.109 157.952 373.189 158.976C371.312 160 369.114 160.512 366.597 160.512C363.696 160.512 361.05 159.765 358.661 158.272C356.272 156.736 354.373 154.581 352.965 151.808C351.6 148.992 350.917 145.749 350.917 142.08ZM377.669 142.144C377.669 139.413 376.901 137.259 375.365 135.68C373.872 134.101 372.037 133.312 369.861 133.312C367.685 133.312 365.829 134.101 364.293 135.68C362.8 137.216 362.053 139.349 362.053 142.08C362.053 144.811 362.8 146.987 364.293 148.608C365.829 150.187 367.685 150.976 369.861 150.976C372.037 150.976 373.872 150.187 375.365 148.608C376.901 147.029 377.669 144.875 377.669 142.144ZM394.355 142.144C394.355 138.432 395.101 135.189 396.595 132.416C398.131 129.643 400.243 127.509 402.931 126.016C405.661 124.523 408.776 123.776 412.275 123.776C416.755 123.776 420.488 124.949 423.475 127.296C426.504 129.643 428.488 132.949 429.427 137.216H417.779C416.797 134.485 414.899 133.12 412.083 133.12C410.077 133.12 408.477 133.909 407.283 135.488C406.088 137.024 405.491 139.243 405.491 142.144C405.491 145.045 406.088 147.285 407.283 148.864C408.477 150.4 410.077 151.168 412.083 151.168C414.899 151.168 416.797 149.803 417.779 147.072H429.427C428.488 151.253 426.504 154.539 423.475 156.928C420.445 159.317 416.712 160.512 412.275 160.512C408.776 160.512 405.661 159.765 402.931 158.272C400.243 156.779 398.131 154.645 396.595 151.872C395.101 149.099 394.355 145.856 394.355 142.144ZM455.185 150.72V160H449.617C445.649 160 442.555 159.04 440.337 157.12C438.118 155.157 437.009 151.979 437.009 147.584V133.376H432.657V124.288H437.009V115.584H447.953V124.288H455.121V133.376H447.953V147.712C447.953 148.779 448.209 149.547 448.721 150.016C449.233 150.485 450.086 150.72 451.281 150.72H455.185Z" fill="white"/>
<path fill-rule="evenodd" clip-rule="evenodd" d="M810.513 244.03L809.541 244.03C809.936 244.028 810.326 244.026 810.513 244.03ZM824.087 244.03L823.513 244.03C823.591 243.868 823.837 243.949 824.081 244.028L824.087 244.03ZM727.031 122.466C727.079 122.473 727.128 122.479 727.156 122.485C727.188 122.491 727.195 122.496 727.147 122.498C727.138 122.499 727.127 122.499 727.114 122.499C727.097 122.5 727.076 122.5 727.051 122.5C727.046 122.495 727.041 122.489 727.035 122.484C727.029 122.478 727.023 122.471 727.017 122.465C726.9 122.449 726.795 122.434 726.99 122.434L727.007 122.434L727.029 122.466L727.031 122.466ZM727.007 112.025L727.517 111.279C727.298 111.538 727.081 111.794 727.007 112.025ZM727.522 111.274C727.746 111.009 727.972 110.743 728.051 110.5L727.522 111.274ZM806.764 144.196C806.898 144.255 806.96 144.301 806.76 144.198C806.536 144.275 806.535 144.237 806.536 144.198L806.302 144.198C806.302 144.025 806.584 144.117 806.757 144.192L806.536 143.735C806.722 143.927 806.905 144.117 806.764 144.196ZM806.302 143.252C806.145 143.333 806.339 143.533 806.532 143.731L806.536 143.735L806.302 143.252Z" fill="white"/>
<path fill-rule="evenodd" clip-rule="evenodd" d="M638.088 213.409L638.086 213.415L638.086 212.803C638.243 212.884 638.165 213.148 638.088 213.409ZM806.302 143.252C806.145 143.333 806.339 143.533 806.532 143.731L806.536 143.735L806.757 144.192C806.584 144.117 806.302 144.025 806.302 144.198L806.536 144.198C806.535 144.237 806.536 144.275 806.76 144.198C806.96 144.301 806.898 144.255 806.764 144.196C806.905 144.117 806.722 143.927 806.536 143.735L806.302 143.252ZM817.928 226.5C817.856 226.5 817.783 226.499 817.709 226.499C817.675 226.499 817.641 226.499 817.607 226.5C817.545 226.5 817.483 226.5 817.421 226.5L817.607 226.5L817.928 226.5ZM817.417 226.5L817.175 226.5L817.062 226.5L817.011 226.5L816.929 226.5C816.956 226.5 816.983 226.5 817.011 226.5C817.028 226.5 817.045 226.5 817.062 226.5C817.099 226.501 817.137 226.501 817.175 226.5C817.254 226.5 817.335 226.5 817.417 226.5ZM813.93 226.524C813.851 226.443 813.583 226.483 813.316 226.523L813.311 226.524H812.718C812.793 226.601 813.05 226.563 813.311 226.524H813.93ZM727.522 111.274L728.051 110.5C727.972 110.743 727.746 111.009 727.522 111.274ZM727.007 112.025C727.081 111.794 727.298 111.538 727.517 111.279L727.007 112.025ZM726.99 122.434C726.795 122.434 726.9 122.449 727.017 122.465C727.023 122.471 727.029 122.478 727.035 122.484L727.051 122.5C727.076 122.5 727.097 122.5 727.114 122.499C727.127 122.499 727.138 122.499 727.147 122.498C727.195 122.496 727.188 122.491 727.156 122.485C727.128 122.479 727.079 122.473 727.031 122.466L727.029 122.466L727.007 122.434L726.99 122.434Z" fill="white"/>
<path fill-rule="evenodd" clip-rule="evenodd" d="M806.536 143.735L806.302 143.252C806.145 143.333 806.339 143.533 806.532 143.731L806.536 143.735ZM806.76 144.198C806.96 144.301 806.898 144.255 806.764 144.196C806.905 144.117 806.722 143.927 806.536 143.735L806.757 144.192C806.584 144.117 806.302 144.025 806.302 144.198L806.536 144.198C806.535 144.237 806.536 144.275 806.76 144.198ZM832.046 191.949C832.047 191.953 832.049 191.956 832.051 191.959C832.052 191.962 832.054 191.964 832.055 191.967C832.052 191.961 832.049 191.955 832.046 191.949ZM817.928 226.5C817.856 226.5 817.783 226.499 817.709 226.499L817.607 226.5L817.421 226.5H817.928ZM813.93 226.524C813.851 226.443 813.583 226.483 813.316 226.523L813.311 226.524H812.718C812.793 226.601 813.05 226.563 813.311 226.524H813.93ZM727.522 111.274C727.746 111.009 727.972 110.743 728.051 110.5L727.522 111.274ZM727.007 112.025C727.081 111.794 727.298 111.538 727.517 111.279L727.007 112.025ZM726.99 122.434C726.795 122.434 726.9 122.449 727.017 122.465C727.023 122.471 727.029 122.478 727.035 122.484L727.051 122.5C727.076 122.5 727.097 122.5 727.114 122.499C727.127 122.499 727.138 122.499 727.147 122.498C727.195 122.496 727.188 122.491 727.156 122.485C727.128 122.479 727.079 122.473 727.031 122.466L727.029 122.466L727.007 122.434L726.99 122.434Z" fill="white"/>
<path fill-rule="evenodd" clip-rule="evenodd" d="M781.64 58.897C778.058 51.9061 774.831 43.257 768.717 38.215C756.306 28.3355 737.871 26.4626 725.381 37.6088L724.257 38.6881C720.129 42.5705 717.666 46.9347 715.102 52.0136C713.996 54.2236 712.858 56.412 711.698 58.5921L711.697 58.593C708.931 63.7856 708.931 63.7864 701.797 77.4855C700.979 79.0564 700.161 80.6272 699.343 82.1979L698.532 83.7546C697.044 86.6101 695.554 89.4647 694.045 92.308C690.054 99.8211 686.173 107.393 682.3 114.971L681.63 116.283C679.896 119.677 679.834 119.578 678.935 121.211C676.788 125.034 674.747 128.916 672.733 132.815C670.523 137.094 668.302 141.365 666.046 145.617C664.664 148.217 663.293 150.821 661.948 153.44C661.633 154.053 661.318 154.666 661.003 155.278L660.904 155.471L660.684 155.899C660.17 156.898 659.657 157.897 659.147 158.897L658.706 159.764L657.865 161.399C657.775 161.577 656.878 163.244 655.987 164.899C655.98 164.913 655.973 164.926 655.966 164.939C655.095 166.556 654.237 168.15 654.152 168.319L653.555 169.498L652.897 170.782C651.221 174.074 649.492 177.326 647.703 180.553L647.559 180.812C645.769 184.037 643.981 187.259 642.393 190.597L641.925 191.601C639.791 196.071 638.911 200.73 638.556 205.678L638.459 207.244C638.33 209.097 638.202 210.949 638.086 212.803C638.243 212.884 638.165 213.148 638.088 213.409L638.086 213.415L638.086 214C639.116 220 638.627 219.49 645.42 230.782L646.337 231.729C647.075 232.53 647.821 233.319 648.582 234.098C657.714 243.034 668.18 245.081 680.353 244.998L682.088 244.977C684.385 244.952 686.682 244.922 688.979 244.878C689.804 244.861 690.63 244.844 691.456 244.829C700.907 244.706 708.957 243.773 716.799 237.77L717.84 236.933C722.862 232.975 725.783 227.495 728.697 221.822C728.991 221.246 729.287 220.671 729.582 220.095L730.45 218.438C731.202 216.973 731.913 215.792 733.008 214.58C738.786 212.503 738.786 212.503 745.04 212.689C745.707 212.692 746.374 212.694 747.04 212.695C748.445 212.695 749.849 212.696 751.254 212.701C753.063 212.709 754.872 212.715 756.681 212.715C758.102 212.715 759.523 212.716 760.944 212.719L762.987 212.724C765.829 212.725 768.668 212.752 771.508 212.854L772.751 212.939C773.786 212.97 773.786 212.97 774.675 213.276C775.439 214.148 775.872 214.914 776.337 215.986C776.95 217.632 777.644 219.237 778.342 220.846L779.663 222.56C780.135 224.032 780.727 225.303 781.47 226.647L781.952 227.5C783.054 229.51 784.192 231.409 785.676 233.148L787.051 234.094C790.354 237.556 794.001 240.279 798.366 242.108C799.183 242.42 799.996 242.742 800.801 243.084C803.029 244.03 801.537 243.851 808.519 244.03L809.541 244.03C809.936 244.028 810.326 244.026 810.513 244.03C811.756 244.061 812.773 244.003 814.016 244.03C814.877 244.049 815.725 244.01 816.586 244.03C819.121 244.091 820.977 243.974 823.513 244.03C823.591 243.868 823.837 243.949 824.081 244.028L824.087 244.03L824.636 244.03C829.132 244.407 833.363 242.39 837.242 240.253C845.597 235.417 851.322 227.779 853.958 218.296C856.848 205.471 853.424 194.925 847.41 183.749C846.128 181.386 844.862 179.015 843.609 176.635C843.163 175.788 842.716 174.941 842.269 174.095C840.838 171.394 839.415 168.69 837.995 165.983C836.073 162.316 834.149 158.65 832.212 154.991C828.12 147.26 823.927 139.57 820.167 131.66C819.684 130.625 819.193 129.603 818.677 128.584C817.741 127.709 817.741 127.709 817.272 126.698C816.05 124.054 814.721 121.499 813.311 118.958C811.361 115.454 809.43 111.957 807.705 108.328C807.082 106.971 806.442 105.645 805.698 104.353C804.225 101.857 802.842 99.339 801.54 96.743C801.075 95.8099 800.608 94.8776 800.14 93.9462C799.443 92.5603 798.747 91.1738 798.051 89.7871C797.504 88.696 796.956 87.6054 796.404 86.517L795.931 85.588C795.438 84.6005 794.934 83.6468 794.384 82.69L793.468 82.2169C793.468 81.2706 793.468 81.2706 793.092 80.4597L792.558 79.4741L791.955 78.3532C791.502 77.5195 791.051 76.6847 790.601 75.8489L789.887 74.521C788.734 72.3829 787.589 70.2406 786.453 68.0934L785.79 66.8399C784.392 64.2002 783.003 61.5561 781.64 58.897ZM729.274 63.2255L729.986 61.8719C730.207 61.4484 730.428 61.0229 730.648 60.5967C732.183 57.6308 733.733 54.6335 735.859 52.0839C740.82 47.6773 746.34 46.8494 752.674 48.624C757.765 50.6125 760.307 55.0168 762.756 59.7705C763.22 60.6821 763.684 61.5929 764.157 62.4991C764.471 63.1003 764.784 63.7024 765.096 64.3056L765.537 65.1654C766.344 66.6859 766.344 66.6859 766.883 68.0227C768.086 70.0712 768.556 70.8777 768.792 71.2814L768.793 71.2833L768.794 71.2843L768.795 71.2858C769.028 71.6866 769.029 71.6874 769.293 72.1278L769.789 73.1718L770.367 74.3553C770.785 75.2395 771.209 76.1205 771.638 76.9987L772.326 78.3948C773.479 80.737 774.699 83.0286 775.962 85.3091C778.75 90.3199 781.392 95.3917 783.955 100.529C784.371 101.367 784.792 102.202 785.217 103.035L786.004 104.459L786.78 105.866C787.019 106.302 787.905 108.055 788.787 109.8L788.788 109.802C789.66 111.528 790.529 113.246 790.764 113.677L791.348 114.745L791.921 115.791L792.476 116.808C792.81 117.419 793.141 118.033 793.468 118.649C794.326 120.42 795.258 122.138 796.218 123.853C796.834 124.954 797.444 126.058 798.051 127.165C798.746 128.599 799.459 130.021 800.19 131.436L800.662 132.347C801.164 133.32 801.667 134.292 802.17 135.265L803.219 137.291C804.027 138.854 804.835 140.416 805.643 141.979L806.302 143.252L806.536 143.735C806.722 143.927 806.905 144.117 806.764 144.196C806.898 144.255 806.96 144.301 806.76 144.198C809.318 148.808 811.767 153.467 814.146 158.179L814.248 158.382C815.924 161.702 817.598 165.021 819.442 168.247C820.884 170.758 822.241 173.277 823.49 175.898C824.212 177.45 824.953 178.958 825.786 180.45C827.545 183.539 829.266 186.643 830.916 189.796L831.278 190.488L831.633 191.167L831.797 191.482L831.947 191.764L832.046 191.949C832.049 191.955 832.052 191.961 832.055 191.967L832.27 192.37L832.274 192.378L832.313 192.452L832.329 192.481L832.332 192.487C834.585 196.713 836.908 201.071 837.741 205.84C838.404 211.594 836.914 216.245 833.561 220.865C830.853 223.968 826.999 226.045 822.974 226.435C822.305 226.459 821.637 226.487 820.969 226.524C820.244 226.524 819.919 226.525 819.595 226.523C819.268 226.52 818.941 226.515 818.204 226.504L818.199 226.504L817.928 226.5H817.421H817.417C817.335 226.5 817.254 226.5 817.175 226.5L817.062 226.5L817.011 226.5L816.929 226.5C816.516 226.502 816.159 226.512 815.817 226.522C815.214 226.539 814.659 226.554 813.93 226.524H813.311C813.05 226.563 812.793 226.601 812.718 226.524C811.984 226.502 811.248 226.506 810.513 226.524C809.389 226.552 808.344 226.562 807.236 226.363C800.274 224.036 797.559 219.656 794.273 213.348C793.381 211.625 792.481 209.907 791.573 208.192C790.859 206.843 790.145 205.495 789.434 204.145L789.356 203.999L789.355 203.996C788.535 202.439 787.715 200.883 786.879 199.335C786.087 197.873 785.301 196.414 784.569 194.918C782.165 189.771 779.453 184.783 776.717 179.817C773.794 174.54 770.946 169.244 768.258 163.833C766.222 159.729 764.119 155.681 761.899 151.68C760.2 148.623 758.555 145.562 757.057 142.394C756.356 140.881 755.661 139.405 754.833 137.962C753.009 134.874 751.323 131.725 749.681 128.531C748.973 127.154 748.276 125.604 747.55 123.989C745.072 118.479 742.26 112.223 737.549 109.6C735.207 108.562 733.303 108.281 730.845 109.127L729.757 109.659C729.016 109.92 728.913 109.991 728.744 110.107C728.626 110.189 728.475 110.293 728.051 110.5C727.972 110.743 727.746 111.009 727.522 111.274L727.517 111.279L727.007 112.025C725.608 114.45 725.367 116.363 725.632 119.122C725.802 119.531 725.954 119.958 726.097 120.368L726.158 120.543C726.44 121.354 726.692 122.078 726.99 122.434L727.007 122.434L727.029 122.466L727.031 122.466C727.079 122.473 727.128 122.479 727.156 122.485C727.188 122.491 727.195 122.496 727.147 122.498C727.138 122.499 727.127 122.499 727.114 122.499C727.097 122.5 727.076 122.5 727.051 122.5L727.646 123.371C728.043 124.142 728.443 124.911 728.86 125.671C729.225 126.33 729.587 126.99 729.947 127.652L730.53 128.732C732.104 131.644 733.606 134.58 735.028 137.574C735.548 138.688 736.079 139.788 736.632 140.886C737.588 141.793 737.588 141.793 738.185 142.952L738.909 144.342L739.703 145.86L740.528 147.451L740.772 147.917C741.688 149.671 742.605 151.426 743.507 153.188C743.963 154.13 744.418 155.069 744.905 155.994L745.42 156.945L746 158.02L746.381 158.725C747.482 160.759 748.583 162.792 749.662 164.838C751.358 168.062 753.096 171.26 754.852 174.449L755.652 175.903L756.42 177.301C757.024 178.398 757.622 179.49 758.171 180.617C758.524 181.35 758.893 182.075 759.269 182.796L759.994 184.162C760.533 185.183 761.072 186.203 761.612 187.224L762.438 188.779L763.231 190.283C764.102 191.928 764.846 193.552 765.508 195.297C761.386 195.323 757.264 195.355 753.142 195.396L752.634 195.401C750.699 195.421 748.763 195.44 746.827 195.453C744.769 195.466 742.71 195.48 740.652 195.502C739.866 195.511 739.08 195.52 738.294 195.528C737.168 195.532 736.042 195.537 734.916 195.551L733.871 195.566C732.62 195.563 731.47 195.637 730.215 195.77C723.179 197.943 718.811 202.586 715.353 209.126C714.994 209.824 714.639 210.529 714.282 211.235C712.45 214.862 710.588 218.546 708.214 221.793C703.484 224.458 701.105 225.798 698.55 226.466C695.965 227.142 693.2 227.129 687.637 227.104C686.229 227.095 684.821 227.086 683.412 227.085C682.48 227.085 681.548 227.084 680.615 227.082L679.281 227.077C679.126 227.077 678.972 227.077 678.819 227.077C676.994 227.077 675.207 227.076 673.399 226.76C672.463 226.524 672.463 226.524 671.297 226.458C668.541 226.34 666.37 225.845 663.947 224.463C659.631 221.438 657.425 217.893 656.077 212.803C654.563 206.058 656.537 200.707 659.795 194.877C661.892 191.174 663.925 187.444 665.834 183.633C667.882 179.519 669.985 175.451 672.205 171.433C674.317 167.615 676.376 163.773 678.393 159.9L678.699 159.308C679.735 157.305 680.77 155.303 681.895 153.351C683.084 151.331 684.233 149.328 685.233 147.202C686.473 144.537 687.776 141.918 689.177 139.339C690.948 136.097 692.663 132.836 694.315 129.528C696.53 125.083 698.794 120.683 701.196 116.342C702.982 113.118 704.724 109.881 706.381 106.584C707.848 103.662 709.374 100.784 710.951 97.9234L711.038 97.7656C712.899 94.4001 714.752 91.0487 716.407 87.5693C717.087 86.1306 717.768 84.7119 718.534 83.3202C720.118 80.5696 721.643 77.7997 723.119 74.9856L723.884 73.5229C724.402 72.5336 724.919 71.5442 725.436 70.5547C726.713 68.1104 727.991 65.6663 729.274 63.2255Z" fill="white"/>
</svg>
